<?xml version="1.0" standalone="no"?>
<!DOCTYPE svg PUBLIC "-//W3C//DTD SVG 20010904//EN"
 "http://www.w3.org/TR/2001/REC-SVG-20010904/DTD/svg10.dtd">
<svg version="1.0" xmlns="http://www.w3.org/2000/svg"
 width="1000.000000pt" height="1000.000000pt" viewBox="0 0 1000.000000 1000.000000"
 preserveAspectRatio="xMidYMid meet">
<metadata>
Created by potrace 1.11, written by Peter Selinger 2001-2013
</metadata>
<g transform="translate(0.000000,1000.000000) scale(0.100000,-0.100000)"
fill="#000000" stroke="none">
<path d="M4590 9434 c-376 -34 -712 -99 -1023 -200 -710 -230 -1319 -608
-1837 -1140 -684 -703 -1102 -1583 -1227 -2584 -26 -208 -26 -802 0 -1010 130
-1044 581 -1958 1323 -2680 703 -684 1583 -1102 2584 -1227 208 -26 802 -26
1010 0 1044 130 1958 581 2680 1323 684 703 1102 1583 1227 2584 26 208 26
802 0 1010 -130 1044 -581 1958 -1323 2680 -700 682 -1580 1100 -2574 1226
-119 15 -726 28 -840 18z m-947 -1726 c34 -23 85 -63 112 -88 28 -25 62 -52
76 -59 15 -7 36 -31 48 -52 12 -21 33 -51 46 -67 12 -15 29 -46 36 -70 15 -50
34 -71 51 -54 19 19 26 14 38 -22 13 -41 41 -68 48 -48 3 10 7 10 18 1 11 -9
20 -8 39 5 20 13 26 14 29 4 20 -69 34 -93 54 -96 26 -4 26 -2 2 68 -10 30
-25 56 -34 58 -11 2 -14 15 -13 45 2 36 -1 42 -18 42 -12 0 -21 -9 -25 -25 -4
-17 -8 -21 -14 -12 -4 7 -5 20 -2 28 3 8 0 24 -6 34 -10 16 -10 23 3 35 19 19
45 11 53 -17 4 -18 7 -19 20 -8 21 17 20 40 -3 69 l-19 24 -47 -27 c-31 -18
-52 -40 -61 -62 -16 -37 -25 -42 -44 -19 -7 8 -21 15 -31 15 -26 0 -24 22 4
48 27 25 77 46 77 32 0 -17 26 -11 80 16 41 21 49 28 40 39 -13 16 -5 35 15
35 7 0 16 -13 20 -29 3 -15 17 -38 30 -50 14 -11 25 -25 25 -31 0 -5 9 -10 20
-10 11 0 19 -4 18 -9 -2 -5 2 -8 7 -7 6 0 9 6 9 13 -1 6 8 14 19 17 18 4 19 1
14 -38 -6 -42 -5 -44 39 -74 24 -18 49 -32 55 -32 5 0 17 17 27 38 14 33 16
35 20 13 2 -16 -6 -33 -27 -55 -17 -18 -31 -37 -31 -44 0 -7 -11 -22 -25 -34
-48 -41 -77 -107 -74 -168 1 -30 0 -62 -3 -70 -3 -8 -11 -58 -17 -110 -6 -52
-20 -129 -31 -170 -30 -109 -45 -189 -36 -197 10 -11 27 18 24 43 -2 13 10 34
31 54 55 56 191 283 191 321 0 17 -29 9 -40 -11 -6 -11 -15 -20 -21 -20 -6 0
-6 8 1 21 9 16 8 24 -4 37 -8 10 -18 41 -22 71 -7 52 -6 53 14 40 17 -10 24
-10 46 4 14 9 32 17 41 17 12 0 14 6 9 28 -21 86 -36 95 -79 48 -18 -20 -41
-36 -51 -36 -14 0 -11 8 18 38 20 20 38 46 40 57 3 15 11 19 32 18 19 -1 26 2
23 11 -3 8 11 30 31 49 28 27 41 34 52 27 8 -5 29 -10 47 -10 25 0 35 6 45 28
9 18 22 28 40 30 16 2 30 11 33 23 7 21 11 22 68 19 22 -1 37 3 37 10 0 6 12
24 27 39 24 24 30 26 60 16 34 -10 41 -30 27 -82 -5 -18 -11 -21 -34 -17 -24
5 -29 2 -38 -25 -6 -17 -18 -31 -26 -31 -8 0 -17 -4 -20 -9 -11 -17 6 -41 29
-41 56 0 175 -78 175 -114 0 -12 4 -26 10 -32 6 -6 6 -15 0 -24 -8 -13 -10
-12 -10 3 0 11 -8 17 -24 17 -21 0 -25 6 -28 33 -3 30 -6 32 -43 35 -66 6
-110 -14 -179 -81 -35 -34 -67 -69 -72 -77 -5 -8 -26 -23 -46 -32 -30 -14 -38
-23 -38 -45 -1 -35 -23 -65 -43 -58 -17 7 -87 -49 -87 -70 0 -6 -15 -32 -33
-56 -35 -46 -64 -129 -52 -148 12 -20 44 -11 57 16 7 16 29 35 48 45 19 9 70
55 113 101 60 67 92 93 147 121 83 41 141 52 199 36 33 -9 40 -14 32 -24 -13
-15 -4 -27 14 -20 7 3 16 1 20 -5 3 -6 15 -11 25 -11 11 0 24 -9 30 -20 12
-22 67 -28 99 -10 15 7 20 4 30 -16 14 -32 54 -30 59 3 2 16 -6 28 -30 43 -36
22 -20 27 23 7 33 -15 89 -63 89 -76 0 -5 7 -17 16 -26 9 -9 13 -19 9 -23 -4
-4 -15 3 -25 16 -10 12 -26 22 -35 22 -15 0 -16 -7 -10 -47 l7 -48 -39 38
c-46 44 -61 46 -69 10 -10 -45 -12 -50 -13 -22 -1 15 -8 32 -16 39 -18 15 -45
6 -45 -16 0 -9 -16 5 -38 33 -49 61 -191 140 -223 123 -11 -6 -24 -8 -29 -5
-16 10 -101 -33 -98 -48 4 -18 -54 -67 -78 -67 -24 0 -84 -59 -84 -82 0 -28
21 -22 62 19 l38 37 25 -24 c22 -21 29 -22 45 -12 29 18 32 15 25 -18 -5 -22
-3 -32 9 -36 9 -3 16 -15 16 -26 0 -31 44 -20 48 12 5 34 22 51 22 22 0 -13 7
-25 15 -29 9 -3 15 -13 14 -22 -3 -29 1 -41 12 -41 16 0 38 31 39 53 0 27 30
21 30 -7 0 -25 28 -36 92 -36 25 0 28 -3 23 -20 -4 -14 1 -30 17 -50 13 -16
43 -56 66 -89 24 -34 50 -61 57 -61 24 0 29 23 8 39 -19 16 -14 18 100 36
l120 19 18 -22 c18 -23 39 -29 39 -12 0 30 -32 69 -62 76 -18 4 -37 9 -43 11
-48 14 -101 20 -109 12 -20 -19 -37 -10 -30 16 7 28 2 30 -26 13 -28 -18 -34
-5 -13 33 32 60 57 78 95 70 40 -9 194 -124 217 -162 9 -14 30 -38 47 -52 26
-22 32 -36 38 -83 4 -31 13 -69 20 -83 8 -14 17 -34 20 -43 3 -10 11 -15 19
-12 8 3 20 -2 27 -11 11 -13 15 -13 22 -3 7 9 8 6 5 -10 -3 -13 1 -25 9 -30
12 -7 13 -14 5 -35 -6 -15 -8 -42 -4 -59 7 -36 63 -113 73 -101 18 24 33 97
32 163 -1 49 4 87 14 109 12 24 13 36 5 44 -17 17 -34 -6 -35 -46 -1 -39 -26
-73 -26 -36 0 15 -5 19 -15 15 -9 -3 -15 0 -15 9 0 18 -26 20 -33 3 -3 -7 -6
-1 -6 15 -1 31 -20 37 -28 8 -5 -19 -5 -19 -24 0 -13 13 -18 31 -17 57 l1 37
4 -37 c6 -54 28 -48 48 12 14 41 14 54 4 66 -10 12 -7 20 15 43 24 25 26 31
15 54 -10 23 -9 30 6 47 16 17 26 20 57 15 27 -5 46 -2 63 9 31 20 44 20 68
-1 18 -17 19 -17 33 1 10 15 16 16 27 7 8 -6 21 -9 30 -5 8 3 18 1 22 -5 10
-17 35 -13 35 7 1 10 7 3 15 -16 8 -17 25 -36 38 -41 27 -10 39 -48 30 -93 -3
-17 1 -38 11 -53 9 -14 12 -25 7 -25 -5 0 -13 5 -16 10 -15 24 -26 7 -23 -37
3 -48 3 -48 36 -45 18 1 42 -3 54 -9 18 -9 24 -8 35 7 11 16 13 13 13 -28 0
-34 -5 -49 -20 -59 -18 -13 -19 -18 -8 -51 13 -45 20 -47 42 -13 11 17 26 25
44 25 20 0 39 13 70 47 32 36 37 39 18 12 -41 -57 -27 -82 21 -37 l23 21 0
-21 c0 -25 9 -28 30 -9 8 6 7 3 -3 -9 -18 -22 -22 -44 -8 -44 12 0 84 59 95
77 5 10 4 18 -4 23 -9 6 -6 10 9 15 45 14 53 -13 16 -57 -14 -16 -22 -34 -19
-40 7 -10 78 -6 119 7 11 3 0 -5 -25 -18 -50 -28 -100 -71 -100 -86 0 -13 52
-41 77 -42 14 0 13 -2 -6 -10 -19 -7 -22 -14 -17 -34 6 -23 4 -25 -19 -19 -22
5 -25 3 -25 -20 0 -30 49 -63 58 -38 7 23 31 12 57 -25 24 -37 35 -101 15 -88
-5 3 -10 17 -10 30 0 24 -17 35 -56 35 -31 0 -31 -20 1 -50 14 -13 25 -28 25
-34 0 -5 -16 5 -35 24 l-34 33 -10 -24 -10 -24 -7 23 c-13 44 -25 22 -20 -35
l6 -58 -25 65 c-14 36 -36 73 -48 83 -12 10 -34 30 -49 43 -15 13 -32 24 -37
24 -20 0 -22 -22 -4 -43 l18 -21 -30 22 c-64 45 -149 138 -134 148 15 9 10 21
-11 27 -17 4 -19 11 -14 31 8 34 -11 34 -58 2 -25 -17 -40 -21 -52 -14 -21 12
-36 2 -36 -22 0 -12 -8 -20 -22 -22 -14 -2 -26 -14 -32 -31 -16 -43 1 -50 69
-27 32 11 60 18 62 16 2 -2 -25 -13 -59 -26 -86 -31 -189 -85 -221 -114 -22
-21 -27 -34 -27 -75 0 -27 4 -52 10 -56 5 -3 7 -12 4 -19 -3 -8 -1 -17 5 -21
6 -3 11 -28 11 -55 0 -36 -5 -52 -17 -59 -19 -10 -20 -73 -3 -121 5 -14 10
-60 13 -102 4 -71 2 -78 -15 -78 -13 0 -18 7 -18 30 0 20 -7 33 -21 41 -33 17
-41 -5 -35 -104 5 -68 3 -88 -7 -85 -6 3 -14 24 -17 49 -3 30 -10 44 -20 44
-12 0 -16 -16 -18 -70 -2 -38 -7 -128 -11 -200 -6 -111 -7 -119 -9 -51 l-2 79
-25 -23 c-34 -32 -48 -83 -42 -149 3 -31 3 -48 -1 -39 -5 12 -12 14 -21 9 -10
-7 -12 -21 -7 -57 3 -27 2 -64 -3 -82 -6 -18 -7 -56 -4 -83 5 -41 9 -50 23
-46 15 4 15 0 -4 -33 -21 -39 -22 -33 11 -140 9 -28 53 37 53 78 0 20 5 44 10
52 14 21 13 -161 -1 -274 -12 -95 -5 -196 13 -196 6 0 19 7 29 16 17 15 18 14
12 -22 -3 -22 -22 -75 -43 -119 -45 -96 -59 -178 -35 -205 14 -16 14 -21 1
-56 -13 -33 -23 -121 -25 -220 -1 -13 -9 -24 -22 -27 -17 -5 -19 -11 -14 -39
4 -20 0 -50 -9 -77 -9 -24 -16 -56 -16 -72 0 -15 -5 -31 -10 -34 -6 -4 -9 -14
-6 -23 3 -10 -3 -42 -14 -72 -10 -30 -17 -57 -15 -59 7 -6 73 28 79 42 3 6 4
-1 1 -18 -27 -168 -38 -261 -44 -380 -4 -77 -9 -123 -9 -102 -3 57 -27 47 -46
-20 -9 -32 -24 -67 -32 -78 -15 -18 -16 -11 -10 97 4 73 3 118 -3 118 -5 0
-12 -6 -14 -12 -3 -7 -3 19 0 57 3 39 11 73 16 77 6 4 4 13 -7 23 -10 10 -14
24 -11 34 4 9 9 32 12 51 3 19 12 44 19 55 17 24 18 55 3 55 -17 0 -5 101 13
111 21 12 52 85 44 104 -3 10 -12 15 -21 11 -10 -4 -15 1 -15 14 0 11 6 20 14
20 13 0 79 140 71 149 -16 16 -50 -30 -76 -104 -5 -13 -7 -3 -8 30 -1 28 -4
80 -7 116 -6 62 -5 66 15 72 13 3 21 13 21 26 0 12 4 21 8 21 13 0 42 69 49
116 6 46 -4 57 -27 29 -7 -8 -15 -15 -19 -15 -9 0 0 94 10 100 5 4 12 20 15
38 5 25 3 32 -9 32 -9 0 -19 -9 -22 -21 -4 -11 -9 -18 -12 -15 -3 3 2 17 11
31 24 37 37 312 15 326 -11 7 -12 12 -1 29 14 23 16 156 2 165 -6 4 -5 16 4
33 10 20 14 80 15 242 2 460 11 616 34 631 5 4 12 39 15 78 4 61 2 71 -12 71
-11 0 -16 -9 -16 -26 0 -14 -14 -45 -30 -69 -17 -24 -33 -58 -36 -75 -11 -51
-19 -23 -19 63 -1 90 -8 115 -30 97 -33 -28 -45 20 -23 92 8 26 20 43 35 49
26 10 31 37 8 45 -18 7 -75 -32 -75 -52 0 -8 -7 -29 -16 -46 -9 -17 -17 -56
-18 -86 -1 -40 -6 -57 -18 -61 -8 -3 -28 -21 -43 -39 -21 -25 -26 -39 -22 -62
4 -16 2 -32 -2 -35 -15 -9 -17 13 -10 84 10 95 -3 105 -42 30 -19 -38 -22 -39
-54 -33 -35 6 -36 5 -56 -45 -23 -55 -55 -72 -43 -23 4 15 13 39 20 54 8 15
14 37 14 50 0 13 7 34 16 47 27 38 3 44 -50 11 -28 -18 -52 -43 -60 -62 l-13
-31 -5 39 c-7 50 2 66 55 103 24 16 50 37 57 47 14 15 13 16 -10 9 -14 -5 -38
-9 -53 -10 -15 -1 -42 -12 -59 -25 -17 -12 -28 -18 -24 -11 11 17 123 91 138
91 19 0 90 37 99 52 4 7 3 18 -3 25 -16 20 -49 16 -55 -7 -4 -14 -11 -19 -23
-15 -9 3 -24 -3 -35 -15 -23 -25 -40 -25 -66 1 -21 21 -28 21 -68 -8 -19 -14
-23 -14 -19 -3 2 8 31 25 64 38 83 34 89 38 87 58 -1 10 5 30 13 46 21 40 18
79 -6 85 -13 3 -20 14 -20 29 0 12 -4 26 -10 29 -5 3 -10 17 -10 31 0 49 -43
16 -52 -41 -2 -13 -12 -21 -30 -23 -35 -4 -59 -33 -83 -99 -18 -48 -25 -57
-58 -68 -21 -7 -46 -20 -56 -29 -10 -9 -28 -16 -40 -16 -12 0 -31 -5 -42 -10
-19 -11 -24 -2 -20 40 5 50 11 60 30 48 25 -15 51 -4 51 22 0 19 -4 21 -32 15
-32 -7 -32 -7 -17 16 65 101 72 119 60 159 -8 27 -22 44 -46 59 -20 11 -40 31
-45 43 -5 13 -17 33 -26 46 -9 12 -12 22 -7 22 18 0 61 -39 83 -75 12 -19 29
-35 39 -35 10 0 22 -13 29 -33 19 -52 38 -74 53 -60 17 17 -4 70 -49 117 -35
38 -36 39 -7 21 17 -10 40 -29 53 -43 22 -23 24 -23 43 -7 32 30 17 105 -22
105 -5 0 -9 11 -9 24 0 14 -4 28 -10 31 -5 3 -10 26 -10 50 0 27 -5 45 -14 48
-7 3 -16 19 -19 36 -7 32 -27 40 -46 18 -7 -9 -8 -24 -1 -48 12 -42 13 -59 1
-59 -5 0 -12 20 -16 45 -4 32 -13 50 -31 61 -13 9 -24 26 -24 39 0 12 -11 37
-25 56 -14 19 -33 46 -42 62 -11 16 -34 32 -55 39 -21 6 -45 19 -54 30 -11 11
-31 18 -55 18 -33 0 -38 3 -44 29 -12 57 -54 66 -76 17 -9 -20 -8 -29 7 -50
11 -14 29 -29 42 -32 24 -7 30 -29 10 -37 -19 -7 4 -29 44 -41 30 -10 34 -16
38 -56 5 -44 6 -45 38 -42 21 2 40 -2 52 -13 9 -9 23 -15 30 -13 14 3 33 -49
20 -57 -4 -3 -15 -2 -23 1 -36 13 -45 -71 -13 -118 27 -41 15 -62 -32 -55 -20
4 -42 3 -47 -1 -14 -10 -45 -59 -45 -72 0 -12 47 -14 54 -1 3 5 17 11 31 13
21 4 25 1 25 -17 0 -17 -6 -22 -32 -23 -18 -1 -53 -4 -78 -7 -42 -6 -47 -4
-77 27 -32 34 -42 69 -28 101 4 9 4 29 1 45 -6 26 -6 26 9 8 8 -11 15 -23 15
-28 0 -4 6 -8 14 -8 7 0 25 -9 40 -21 30 -23 60 -19 76 12 9 15 7 21 -5 25 -8
3 -15 15 -15 26 0 28 -18 58 -35 58 -18 0 -20 -21 -4 -37 7 -7 7 -13 0 -17
-14 -9 -33 30 -29 64 4 46 -53 94 -68 56 -3 -8 -13 -12 -25 -9 -22 6 -24 0 -8
-29 11 -21 12 -21 25 -3 14 18 14 18 14 -2 0 -11 -9 -28 -21 -39 -17 -16 -22
-16 -29 -4 -6 8 -10 23 -10 32 0 9 -5 20 -11 23 -7 5 -5 13 6 25 9 10 14 23
11 29 -3 5 -2 11 2 13 5 1 12 18 15 36 6 29 3 34 -32 58 -45 29 -88 25 -97
-10 -5 -22 26 -149 52 -211 8 -19 14 -39 14 -45 0 -18 -20 0 -30 26 -10 24
-36 42 -46 31 -3 -3 -1 -31 6 -61 9 -42 16 -56 29 -56 9 0 49 -39 90 -90 40
-49 86 -99 102 -111 26 -18 29 -26 24 -51 -5 -21 -2 -35 12 -50 10 -12 12 -18
4 -13 -9 5 -18 2 -26 -8 -10 -14 -18 -7 -53 49 -24 37 -48 64 -55 61 -20 -7
-10 -95 18 -153 29 -62 32 -83 10 -64 -21 18 -42 -2 -71 -67 -12 -29 -28 -53
-33 -53 -24 0 -8 -16 35 -35 42 -19 45 -22 40 -50 -3 -16 -6 -71 -7 -121 -2
-87 -3 -90 -20 -73 -10 10 -25 32 -34 48 -19 37 -35 40 -35 6 0 -18 -4 -23
-15 -19 -10 4 -15 0 -15 -11 0 -11 6 -15 18 -11 16 6 17 -3 14 -131 -3 -80 0
-158 7 -187 17 -79 31 -300 41 -654 5 -178 13 -329 18 -335 9 -11 26 -167 24
-212 -4 -79 1 -151 13 -186 8 -23 15 -78 15 -123 1 -104 15 -256 35 -376 9
-52 20 -185 25 -295 5 -110 11 -229 14 -265 4 -45 3 -56 -3 -35 -5 17 -9 57
-10 90 -2 76 -9 105 -28 105 -10 0 -14 10 -13 33 5 94 0 157 -14 157 -22 0
-25 -24 -22 -150 1 -63 0 -101 -3 -85 -8 40 -33 38 -43 -2 -5 -18 -13 -33 -18
-33 -13 0 -13 16 1 42 14 26 -3 68 -27 68 -15 0 -16 -11 -10 -92 3 -51 8 -106
10 -123 2 -16 1 -22 -1 -12 -2 9 -9 17 -15 17 -7 0 -9 -24 -4 -75 5 -54 4 -75
-5 -75 -6 0 -9 -9 -6 -20 3 -11 0 -20 -5 -20 -7 0 -9 19 -6 50 3 28 1 50 -3
50 -14 0 -11 28 4 34 10 5 10 7 0 12 -9 4 -13 28 -13 69 0 35 -4 66 -9 69 -5
3 -12 57 -16 118 -8 130 -26 841 -28 1123 -1 118 -6 198 -13 210 -17 31 -25
95 -11 92 7 -1 13 13 15 36 2 28 0 37 -12 37 -12 0 -16 10 -16 40 0 29 4 40
15 40 11 0 15 13 15 54 0 30 -4 56 -10 58 -6 2 -7 86 -1 243 9 262 8 576 -3
594 -10 16 -23 14 -47 -10 -16 -16 -19 -29 -15 -52 7 -40 -9 -70 -24 -47 -5 8
-7 22 -5 31 3 9 12 49 20 90 8 41 18 88 23 104 15 51 -6 74 -34 38 -12 -17
-14 -17 -29 -2 -21 21 -12 99 11 99 8 0 22 17 31 37 14 34 14 42 -1 83 -9 25
-16 53 -16 64 0 10 -9 33 -20 51 -12 20 -19 46 -18 65 2 18 -2 35 -8 37 -7 2
-18 -24 -28 -70 -9 -40 -28 -90 -42 -111 -14 -21 -34 -60 -43 -89 -20 -57 -28
-64 -56 -43 -16 11 -17 18 -8 37 10 20 12 21 12 6 1 -31 25 -14 49 36 24 50
22 77 -4 56 -8 -6 -1 14 16 45 16 32 35 75 42 97 6 22 20 45 30 50 21 11 25
49 5 49 -8 0 -22 -9 -32 -20 -10 -11 -24 -20 -31 -20 -7 0 -43 -16 -79 -36
-38 -21 -65 -31 -65 -24 0 16 -47 60 -64 60 -6 0 -18 -6 -25 -12 -10 -11 -16
-8 -31 12 l-18 24 -41 -19 c-41 -20 -61 -53 -61 -101 0 -15 -6 -24 -15 -24
-20 0 -19 16 6 70 21 45 27 99 14 120 -5 8 -14 6 -32 -5 -22 -15 -27 -15 -47
-2 -12 9 -27 12 -33 9 -11 -8 -28 -59 -38 -115 -7 -41 -26 -46 -35 -8 -8 35
-24 26 -33 -18 -6 -30 -13 -40 -30 -43 -17 -2 -22 -10 -23 -33 -1 -47 -3 -55
-14 -55 -5 0 -10 21 -10 48 0 61 -17 122 -34 122 -15 0 -54 -48 -80 -97 -22
-43 -36 -42 -36 3 0 44 -16 41 -49 -9 -34 -52 -45 -32 -21 38 24 70 24 65 2
65 -24 0 -46 -25 -70 -78 l-20 -44 3 44 c1 24 11 65 24 92 36 81 10 101 -53
41 -30 -28 -41 -33 -56 -25 -10 5 -20 15 -22 21 -3 9 -10 9 -27 0 -12 -7 -20
-18 -18 -25 3 -8 -14 -21 -46 -34 -64 -28 -72 -21 -15 13 23 15 61 46 82 69
33 34 41 38 44 23 5 -22 28 -16 26 7 -1 9 4 16 11 16 7 0 21 3 29 6 12 5 15 2
10 -10 -3 -9 -3 -16 0 -16 16 0 64 31 69 44 13 34 -89 35 -196 1 -48 -16 -99
-25 -135 -24 l-57 1 50 12 c28 7 66 22 85 34 19 12 42 22 51 22 9 0 28 9 42
20 15 12 46 24 69 28 28 5 43 13 43 22 0 12 -14 15 -69 13 -60 -1 -75 -5 -115
-33 -25 -18 -40 -26 -33 -19 17 18 15 39 -3 39 -55 0 74 51 167 67 21 3 43 12
49 19 20 24 -1 36 -57 32 -40 -3 -54 -1 -54 9 0 8 13 13 39 13 22 0 44 6 51
15 16 20 74 19 90 0 16 -19 55 -16 55 5 0 9 -11 16 -27 18 -36 4 -35 17 3 36
28 14 33 14 75 -10 45 -25 80 -27 169 -8 11 2 14 1 8 -2 -20 -9 -15 -24 7 -24
12 0 20 7 20 16 0 14 8 16 57 11 59 -6 110 8 145 40 16 14 23 15 58 3 41 -13
49 -27 29 -47 -15 -15 -3 -33 23 -33 11 0 66 23 121 51 63 31 109 48 122 45
26 -7 95 17 110 37 9 12 15 13 23 5 8 -8 13 -7 18 7 4 11 3 20 -3 22 -12 4 -2
64 17 106 14 29 4 52 -16 39 -17 -10 -74 -122 -74 -143 0 -11 -4 -19 -8 -19
-4 0 -6 16 -4 35 3 23 0 35 -8 35 -14 0 -61 -34 -100 -72 -19 -19 -34 -25 -49
-21 -26 7 -27 27 -2 45 26 18 23 81 -3 86 -15 3 -18 0 -13 -17 6 -23 -17 -41
-52 -41 -16 0 -20 -6 -18 -22 1 -14 -3 -22 -11 -20 -7 1 -18 -9 -24 -23 -6
-14 -14 -25 -17 -25 -4 0 -44 5 -89 10 -82 11 -84 10 -113 -15 -34 -28 -52
-25 -47 10 1 12 -4 30 -11 39 -12 14 -12 24 -3 50 18 50 15 76 -8 76 -11 0
-20 3 -20 8 0 13 167 152 183 152 26 0 8 -37 -21 -44 -29 -6 -78 -43 -70 -52
3 -3 14 -4 24 -4 110 8 148 -8 138 -59 -4 -19 1 -32 20 -50 13 -13 29 -20 35
-16 14 8 14 110 0 137 -12 23 1 43 29 43 9 0 18 8 20 18 4 20 -28 23 -58 5
-16 -10 -23 -9 -45 12 -17 16 -22 27 -15 34 15 15 12 66 -5 72 -8 4 -32 -9
-57 -31 -30 -25 -49 -34 -64 -31 -13 4 -27 0 -34 -9 -16 -19 -30 -19 -30 0 0
8 -2 15 -5 15 -16 0 -63 -31 -68 -45 -16 -39 -75 5 -62 46 5 15 2 19 -15 19
-15 0 -25 -11 -35 -34 -8 -19 -19 -37 -24 -40 -14 -9 -23 29 -15 69 3 19 2 35
-2 35 -10 0 -63 -56 -80 -86 -11 -18 -13 -17 -24 11 -9 24 -8 36 4 63 9 18 16
35 16 37 0 12 -21 3 -48 -20 -34 -29 -55 -16 -27 15 15 16 16 22 5 35 -12 14
-16 13 -37 -6 -13 -13 -23 -34 -23 -50 0 -15 -5 -31 -10 -34 -6 -4 -9 -13 -8
-22 3 -17 -27 -41 -38 -31 -9 9 17 109 33 129 7 8 13 21 13 27 0 24 -28 11
-60 -29 -29 -37 -36 -40 -66 -35 -29 6 -36 3 -55 -24 -24 -32 -46 -39 -55 -17
-7 20 13 67 29 67 17 0 65 55 78 89 8 19 15 22 37 18 15 -3 59 3 97 13 39 10
72 16 75 14 2 -3 -6 -7 -18 -11 -12 -3 -22 -12 -22 -20 0 -11 6 -13 23 -8 12
4 43 8 69 9 72 2 94 39 28 48 -23 3 -22 4 14 22 37 18 40 18 52 1 16 -22 44
-13 44 14 0 11 5 23 10 26 6 3 17 20 26 37 l16 31 -31 -6 c-37 -8 -39 3 -11
43 11 15 33 30 50 33 40 8 47 30 24 73 -21 38 -32 43 -40 17 -17 -54 -25 -66
-36 -55 -9 9 -9 21 1 48 15 43 6 57 -17 27 -19 -24 -87 -73 -102 -73 -31 0 7
63 70 115 25 21 45 43 45 49 0 6 -16 13 -35 16 -19 4 -45 12 -57 18 -16 9 -34
9 -73 1 -60 -13 -75 -5 -41 22 19 16 39 19 113 19 76 0 100 4 149 26 38 17 65
24 76 19 10 -5 28 -7 39 -6 12 1 24 -5 27 -13 3 -8 24 -20 46 -26 23 -6 41
-15 41 -20 0 -14 34 -12 48 2 9 9 16 7 33 -8 23 -20 64 -94 53 -94 -4 0 4 -10
17 -22 14 -13 37 -40 53 -61 16 -21 42 -45 59 -53 33 -18 31 -29 -3 -16 -28
10 -89 -8 -102 -31 -6 -12 -2 -20 21 -32 39 -20 67 -19 119 5 l43 20 29 -22
c23 -17 37 -20 74 -15 35 5 46 3 46 -7 0 -24 27 -38 60 -31 33 7 43 38 10 33
-10 -2 -20 2 -22 7 -2 6 9 11 25 13 33 4 34 14 6 59 -19 30 -25 33 -51 27 -40
-8 -75 12 -83 47 -5 23 -12 29 -33 29 -25 0 -28 5 -44 73 -10 39 -23 74 -28
75 -6 2 -33 27 -61 55 -33 33 -46 54 -40 60 7 7 1 19 -17 35 -21 20 -38 26
-82 27 -70 2 -75 0 -101 -42 -30 -48 -48 -29 -25 27 28 70 22 94 -28 124 -37
22 -58 26 -140 28 -53 2 -96 6 -96 11 0 20 50 29 105 20 47 -9 55 -8 50 4 -4
12 2 14 34 8 24 -4 41 -2 46 4 10 18 23 13 88 -31z m1045 -37 c3 -10 -2 -12
-19 -8 -13 3 -31 2 -39 -3 -16 -10 -50 4 -50 21 0 16 103 7 108 -10z m-548
-21 c0 -5 -25 -10 -56 -10 -53 0 -59 -2 -100 -44 -25 -24 -44 -53 -44 -65 0
-12 -6 -21 -15 -21 -19 0 -19 10 2 40 30 46 68 82 98 96 35 16 115 18 115 4z
m320 0 c0 -5 -7 -10 -16 -10 -8 0 -12 5 -9 10 3 6 10 10 16 10 5 0 9 -4 9 -10z
m465 -10 c-3 -5 -14 -10 -23 -10 -15 0 -15 2 -2 10 20 13 33 13 25 0z m-335
-35 c0 -9 -9 -15 -24 -15 -13 0 -35 -9 -50 -21 -14 -11 -26 -16 -26 -10 0 14
62 61 83 61 9 0 17 -7 17 -15z m210 -40 c11 -13 10 -14 -4 -9 -9 3 -22 1 -30
-5 -17 -14 -29 -2 -15 16 15 17 34 17 49 -2z m370 -146 c0 -3 -20 -4 -44 -2
-38 5 -44 3 -49 -16 -3 -11 -10 -21 -16 -21 -21 0 -11 27 19 53 17 15 30 32
30 39 0 6 14 -1 30 -17 17 -16 30 -32 30 -36z m104 -151 c-12 -110 -45 -165
-36 -63 4 44 2 55 -11 55 -9 0 -19 -16 -25 -42 -14 -54 -30 -74 -66 -82 l-28
-7 7 48 c9 60 9 60 45 68 16 4 33 12 37 19 6 9 67 51 81 55 1 1 0 -23 -4 -51z
m-147 10 c-3 -8 -6 -5 -6 6 -1 11 2 17 5 13 3 -3 4 -12 1 -19z m-720 -330 c-3
-7 -5 -2 -5 12 0 14 2 19 5 13 2 -7 2 -19 0 -25z m732 1 c41 -25 35 -37 -8
-15 -16 9 -37 16 -46 16 -9 0 -13 5 -10 10 9 15 26 12 64 -11z m691 -133 c0
-2 -8 -10 -17 -17 -16 -13 -17 -12 -4 4 13 16 21 21 21 13z m10 -51 c-23 -25
-40 -32 -40 -17 0 6 46 38 59 41 3 1 -6 -10 -19 -24z m-688 -71 c14 -14 20
-14 33 -4 13 11 15 9 15 -14 0 -14 -6 -26 -12 -26 -18 1 -85 60 -68 60 7 0 22
-7 32 -16z m1005 -16 c-3 -8 -6 -5 -6 6 -1 11 2 17 5 13 3 -3 4 -12 1 -19z
m-10 -40 c-3 -8 -6 -5 -6 6 -1 11 2 17 5 13 3 -3 4 -12 1 -19z m653 -418 c-20
-13 -40 -13 -40 0 0 6 12 10 28 10 21 0 24 -2 12 -10z m212 -115 c4 -16 5 -31
2 -34 -9 -9 -34 30 -34 52 0 28 23 15 32 -18z m-192 5 c19 -19 19 -19 -18 -25
-20 -3 -45 -11 -55 -16 -23 -12 -32 -6 -23 16 4 12 53 41 74 45 1 0 11 -9 22
-20z m90 1 c0 -15 -28 -33 -40 -26 -7 5 -5 12 7 21 21 16 33 18 33 5z m-20
-85 c24 -9 28 -15 17 -19 -9 -3 -26 3 -39 13 -27 23 -22 25 22 6z m-583 -22
c-3 -3 -12 -4 -19 -1 -8 3 -5 6 6 6 11 1 17 -2 13 -5z m676 -58 c78 -63 128
-77 111 -32 -3 9 -2 16 4 16 11 0 22 -23 22 -46 0 -25 -43 -15 -98 21 -47 32
-54 34 -68 20 -8 -8 -22 -15 -29 -15 -24 0 -34 -32 -25 -80 9 -47 -3 -95 -20
-85 -6 4 -8 15 -5 26 4 10 2 19 -3 19 -15 0 -34 -28 -27 -40 3 -5 2 -10 -4
-10 -12 0 -24 37 -16 50 3 5 17 10 31 10 24 0 24 1 20 70 -4 64 -3 70 14 70
11 0 24 9 30 20 6 11 13 20 16 20 3 0 24 -15 47 -34z m-783 -135 c0 -6 -4 -13
-10 -16 -5 -3 -10 -13 -10 -22 0 -13 9 -15 47 -10 28 3 62 -1 87 -9 23 -8 52
-12 65 -9 20 5 22 10 17 40 -9 46 17 48 39 5 l16 -31 -36 -14 c-40 -17 -44
-34 -15 -60 14 -13 18 -25 13 -47 -3 -16 0 -40 7 -53 16 -30 67 -50 86 -34 23
19 16 29 -28 47 l-41 18 51 0 c44 0 51 -3 55 -22 2 -14 -2 -25 -9 -28 -8 -3
-14 -17 -14 -31 0 -25 -23 -35 -35 -15 -4 6 -24 19 -45 30 -22 11 -50 32 -63
46 -34 37 -44 14 -20 -45 11 -25 27 -66 34 -91 12 -37 18 -45 37 -43 21 3 22
-1 22 -57 0 -32 -4 -62 -10 -65 -6 -4 -10 13 -10 44 0 37 -4 51 -14 51 -7 0
-16 -9 -19 -20 -5 -18 -7 -18 -38 11 -31 28 -32 32 -21 63 16 44 15 81 -3 116
-17 33 -32 37 -60 16 -15 -11 -20 -27 -21 -68 -1 -29 3 -59 9 -66 5 -7 7 -15
4 -18 -8 -8 -47 56 -47 76 0 22 -29 60 -46 60 -20 0 -17 -29 6 -67 11 -18 16
-33 11 -33 -5 0 -18 18 -28 40 -20 43 -34 46 -44 9 -6 -22 -7 -21 -8 8 -1 17
-6 35 -11 38 -13 8 -29 -34 -22 -55 3 -8 1 -12 -3 -7 -5 4 -14 24 -22 45 -11
32 -10 47 9 114 12 43 24 78 28 78 5 0 11 10 14 23 9 34 96 86 96 58z m784 -2
c10 9 21 7 45 -6 17 -10 31 -21 31 -25 0 -9 -30 -38 -39 -38 -14 0 -61 41 -73
63 -10 20 -10 21 5 8 13 -10 20 -11 31 -2z m-456 -120 c21 -25 22 -30 7 -35
-8 -4 -24 1 -34 10 -10 9 -31 16 -47 17 -26 0 -27 1 -8 9 12 5 25 13 29 19 11
18 29 11 53 -20z m302 1 c-6 -12 -14 -19 -17 -17 -2 3 1 15 7 27 6 12 14 19
17 17 2 -3 -1 -15 -7 -27z m140 -31 c0 -33 -18 -29 -22 6 -3 27 -1 32 9 23 7
-6 13 -19 13 -29z m-221 -57 c14 -29 14 -172 1 -192 -8 -12 -10 -11 -10 8 0
12 -4 22 -10 22 -5 0 -10 -5 -10 -12 0 -15 -48 -115 -58 -122 -5 -3 -18 -3
-29 0 -18 5 -22 18 -33 99 -8 69 -8 99 0 114 28 54 54 -4 44 -102 -6 -57 -4
-69 7 -65 8 3 21 39 32 89 15 68 17 93 8 132 -6 27 -11 57 -11 67 0 18 1 18
29 2 17 -9 35 -27 40 -40z m61 -163 c0 -24 -4 -38 -10 -34 -17 10 -11 75 7 75
2 0 3 -18 3 -41z m-514 -105 c4 -14 2 -35 -4 -47 -10 -21 -11 -20 -11 10 -1
17 -4 38 -7 47 -3 9 -1 16 5 16 6 0 14 -12 17 -26z m-519 -656 c-3 -8 -6 -5
-6 6 -1 11 2 17 5 13 3 -3 4 -12 1 -19z m-10 -90 c-2 -13 -4 -5 -4 17 -1 22 1
32 4 23 2 -10 2 -28 0 -40z m-50 -1400 c-2 -13 -4 -3 -4 22 0 25 2 35 4 23 2
-13 2 -33 0 -45z m-10 -80 c-3 -7 -5 -2 -5 12 0 14 2 19 5 13 2 -7 2 -19 0
-25z m-180 -530 c-3 -8 -6 -5 -6 6 -1 11 2 17 5 13 3 -3 4 -12 1 -19z m-10
-80 c-3 -8 -6 -5 -6 6 -1 11 2 17 5 13 3 -3 4 -12 1 -19z m-6 -51 c-8 -8 -11
-7 -11 4 0 20 13 34 18 19 3 -7 -1 -17 -7 -23z m-1146 -120 c7 -32 9 -55 4
-50 -9 9 -30 106 -28 132 1 17 1 18 24 -82z m162 31 c-2 -13 -4 -3 -4 22 0 25
2 35 4 23 2 -13 2 -33 0 -45z m1020 10 c-2 -13 -4 -5 -4 17 -1 22 1 32 4 23 2
-10 2 -28 0 -40z m-1010 -100 c-3 -7 -5 -2 -5 12 0 14 2 19 5 13 2 -7 2 -19 0
-25z"/>
<path d="M3642 7653 c2 -23 8 -29 36 -31 40 -4 44 18 7 42 -35 23 -47 20 -43
-11z"/>
<path d="M4210 7510 c0 -5 5 -10 10 -10 6 0 10 5 10 10 0 6 -4 10 -10 10 -5 0
-10 -4 -10 -10z"/>
<path d="M4235 7470 c4 -6 11 -8 16 -5 14 9 11 15 -7 15 -8 0 -12 -5 -9 -10z"/>
<path d="M4236 7324 c-4 -9 -1 -23 6 -31 10 -13 14 -12 25 3 7 10 13 24 13 31
0 19 -37 16 -44 -3z"/>
<path d="M3522 7308 c-7 -7 -12 -26 -12 -44 0 -17 -7 -37 -15 -44 -13 -11 -17
-8 -28 19 -13 35 -31 40 -47 12 -23 -44 -13 -69 46 -106 51 -33 61 -35 120
-33 74 2 87 8 82 34 -3 15 -12 19 -50 19 -57 0 -83 19 -54 41 11 8 30 14 43
14 28 0 28 4 2 46 -30 49 -64 65 -87 42z"/>
<path d="M4400 7310 c0 -5 7 -10 15 -10 8 0 15 5 15 10 0 6 -7 10 -15 10 -8 0
-15 -4 -15 -10z"/>
<path d="M4808 7313 c-20 -5 -24 -28 -8 -38 14 -9 62 23 55 35 -6 10 -17 11
-47 3z"/>
<path d="M4630 7300 c0 -5 7 -10 15 -10 8 0 15 5 15 10 0 6 -7 10 -15 10 -8 0
-15 -4 -15 -10z"/>
<path d="M4280 7275 c0 -8 7 -15 15 -15 8 0 15 7 15 15 0 8 -7 15 -15 15 -8 0
-15 -7 -15 -15z"/>
<path d="M4675 7260 c-3 -5 -1 -10 4 -10 6 0 11 5 11 10 0 6 -2 10 -4 10 -3 0
-8 -4 -11 -10z"/>
<path d="M4710 7235 c0 -28 3 -29 31 -14 16 8 18 13 8 25 -18 22 -39 17 -39
-11z"/>
<path d="M4890 7250 c0 -5 4 -10 9 -10 6 0 13 5 16 10 3 6 -1 10 -9 10 -9 0
-16 -4 -16 -10z"/>
<path d="M4555 7229 c-10 -16 4 -61 18 -56 19 6 22 67 3 67 -8 0 -18 -5 -21
-11z"/>
<path d="M4340 7210 c0 -5 5 -10 10 -10 6 0 10 5 10 10 0 6 -4 10 -10 10 -5 0
-10 -4 -10 -10z"/>
<path d="M4140 7195 c0 -8 7 -15 15 -15 9 0 12 6 9 15 -4 8 -10 15 -15 15 -5
0 -9 -7 -9 -15z"/>
<path d="M4641 7194 c-18 -13 -22 -23 -17 -45 4 -22 0 -32 -17 -44 -12 -8 -30
-15 -41 -15 -18 0 -19 -1 -1 -20 26 -28 46 -25 85 15 27 28 31 37 21 49 -10
11 -9 16 4 24 18 9 17 43 0 49 -6 2 -21 -4 -34 -13z"/>
<path d="M3712 7188 c7 -19 55 -51 67 -44 7 5 0 16 -18 32 -31 26 -55 32 -49
12z"/>
<path d="M4280 7184 c0 -16 23 -44 35 -44 18 0 20 21 3 38 -12 12 -38 17 -38
6z"/>
<path d="M4774 7176 c-10 -8 -15 -18 -11 -22 4 -4 15 0 24 9 22 21 12 31 -13
13z"/>
<path d="M4225 7115 l-30 -24 35 -36 c19 -19 40 -35 47 -35 18 0 18 -1 -22
-67 l-35 -59 19 -67 c10 -38 21 -70 24 -73 23 -24 45 63 49 196 3 92 2 95 -19
98 -13 2 -23 7 -23 12 0 4 9 6 20 3 23 -6 26 12 8 52 -14 31 -34 31 -73 0z"/>
<path d="M3372 7088 c-20 -20 -14 -28 22 -28 38 0 57 17 35 31 -20 12 -43 11
-57 -3z"/>
<path d="M3570 7091 c-18 -12 -16 -13 40 -34 47 -18 64 -12 58 19 -2 14 -13
20 -43 22 -22 1 -47 -2 -55 -7z"/>
<path d="M3680 7090 c0 -5 5 -10 10 -10 6 0 10 5 10 10 0 6 -4 10 -10 10 -5 0
-10 -4 -10 -10z"/>
<path d="M4515 7070 c-3 -5 -2 -10 4 -10 5 0 13 5 16 10 3 6 2 10 -4 10 -5 0
-13 -4 -16 -10z"/>
<path d="M3690 7041 c0 -12 29 -23 41 -15 5 3 7 10 4 15 -8 12 -45 12 -45 0z"/>
<path d="M4200 7025 c0 -24 24 -44 37 -31 9 8 -14 56 -27 56 -5 0 -10 -11 -10
-25z"/>
<path d="M3501 7024 c-16 -12 -20 -19 -12 -27 6 -6 11 -21 11 -34 0 -29 22
-30 67 -2 19 12 36 19 39 16 3 -3 0 -23 -6 -46 -9 -33 -8 -46 4 -70 23 -44 64
-73 86 -61 27 15 33 12 27 -11 -4 -16 2 -24 29 -35 19 -8 38 -22 41 -32 10
-27 43 -72 54 -72 15 0 10 20 -11 47 -13 17 -20 41 -20 69 l0 44 45 0 c32 0
45 4 45 14 0 21 25 37 92 60 33 12 61 25 61 31 0 5 -19 25 -43 44 -41 30 -49
33 -94 27 -42 -5 -57 -13 -96 -51 -25 -25 -49 -45 -53 -45 -4 0 -7 11 -7 25 0
34 -72 81 -160 106 -83 23 -71 22 -99 3z"/>
<path d="M3730 6990 c0 -5 4 -10 9 -10 6 0 13 5 16 10 3 6 -1 10 -9 10 -9 0
-16 -4 -16 -10z"/>
<path d="M4086 6973 l-30 -16 21 -17 c12 -9 31 -40 43 -68 12 -29 29 -52 36
-52 16 0 19 36 4 45 -5 3 -10 33 -10 66 0 66 -9 72 -64 42z"/>
<path d="M3350 6939 c0 -5 5 -7 10 -4 6 3 10 8 10 11 0 2 -4 4 -10 4 -5 0 -10
-5 -10 -11z"/>
<path d="M3323 6890 c-66 -35 -80 -60 -43 -80 25 -14 100 15 100 39 0 25 -12
61 -19 60 -3 -1 -21 -9 -38 -19z"/>
<path d="M3477 6903 c-4 -3 -7 -15 -7 -25 0 -28 34 -19 38 10 3 21 -16 31 -31
15z"/>
<path d="M3233 6875 c-3 -9 -3 -18 0 -22 10 -10 37 6 37 22 0 20 -29 20 -37 0z"/>
<path d="M3994 6865 c-7 -19 7 -50 22 -50 16 0 15 41 0 55 -13 10 -17 9 -22
-5z"/>
<path d="M3520 6860 c0 -5 7 -10 15 -10 8 0 15 5 15 10 0 6 -7 10 -15 10 -8 0
-15 -4 -15 -10z"/>
<path d="M3410 6839 c-7 -11 -9 -27 -6 -35 9 -24 46 2 46 31 0 31 -25 33 -40
4z"/>
<path d="M3560 6828 c-5 -13 -9 -17 -9 -10 -1 21 -27 13 -39 -13 -16 -35 -15
-48 3 -42 11 5 13 0 8 -25 -5 -24 -3 -30 8 -26 8 3 13 17 12 32 -1 16 3 26 12
26 17 0 45 38 45 62 0 26 -29 22 -40 -4z"/>
<path d="M2890 6824 c0 -8 5 -12 10 -9 6 3 10 10 10 16 0 5 -4 9 -10 9 -5 0
-10 -7 -10 -16z"/>
<path d="M3116 6831 c-4 -7 -5 -15 -2 -18 9 -9 19 4 14 18 -4 11 -6 11 -12 0z"/>
<path d="M4050 6821 c0 -22 29 -81 39 -81 6 0 11 -16 11 -36 0 -24 4 -34 13
-31 17 6 10 54 -16 106 -21 43 -47 65 -47 42z"/>
<path d="M3884 6785 c-8 -19 22 -65 41 -65 16 0 20 35 9 64 -8 20 -43 21 -50
1z"/>
<path d="M4155 6791 c-8 -15 3 -31 21 -31 9 0 14 7 12 17 -4 20 -24 28 -33 14z"/>
<path d="M3350 6745 c0 -21 27 -30 45 -15 23 19 18 30 -15 30 -20 0 -30 -5
-30 -15z"/>
<path d="M4001 6723 c-13 -29 -9 -38 14 -30 16 7 21 42 6 51 -4 3 -13 -6 -20
-21z"/>
<path d="M4171 6695 c-29 -78 -35 -105 -22 -106 6 -1 15 -2 21 -3 5 0 15 -7
22 -13 6 -7 17 -13 24 -13 16 0 27 52 19 90 -6 25 -4 29 10 24 13 -5 16 -1 13
20 -2 15 -7 25 -11 24 -5 -2 -13 5 -18 15 -18 31 -37 18 -58 -38z"/>
<path d="M3680 6691 c0 -31 22 -57 40 -46 17 11 11 54 -9 65 -28 15 -31 13
-31 -19z"/>
<path d="M4765 6674 c-20 -21 -19 -31 5 -39 25 -8 40 1 40 25 0 24 -26 33 -45
14z"/>
<path d="M4050 6640 c0 -11 5 -20 10 -20 6 0 10 9 10 20 0 11 -4 20 -10 20 -5
0 -10 -9 -10 -20z"/>
<path d="M4357 6615 c-8 -18 11 -31 25 -17 11 11 3 32 -12 32 -4 0 -10 -7 -13
-15z"/>
<path d="M4729 6599 c-9 -17 -7 -25 10 -43 19 -21 51 -85 51 -105 0 -5 -9 -13
-21 -16 -19 -6 -19 -8 -4 -28 8 -12 24 -41 35 -64 21 -46 42 -54 76 -29 18 14
17 16 -26 60 -47 49 -46 65 2 19 24 -23 28 -24 34 -10 4 11 -5 30 -26 54 -34
38 -69 107 -70 134 0 15 -30 49 -43 49 -3 0 -11 -9 -18 -21z"/>
<path d="M5053 6612 c-6 -4 -16 -20 -22 -35 -12 -30 -28 -35 -37 -12 -9 21
-36 19 -32 -2 2 -10 10 -17 17 -15 6 1 23 -11 37 -28 14 -16 32 -30 39 -30 21
0 57 66 53 97 -3 29 -31 41 -55 25z"/>
<path d="M4880 6599 c0 -23 22 -49 40 -49 24 0 25 8 4 38 -16 23 -44 30 -44
11z"/>
<path d="M3770 6584 c0 -24 19 -54 34 -54 15 0 30 45 21 60 -10 17 -55 12 -55
-6z"/>
<path d="M5915 6580 c-3 -5 1 -10 9 -10 8 0 18 5 21 10 3 6 -1 10 -9 10 -8 0
-18 -4 -21 -10z"/>
<path d="M4013 6560 c-4 -15 -9 -17 -23 -10 -30 16 -40 12 -40 -15 0 -18 -5
-25 -18 -25 -23 0 -52 -30 -52 -53 0 -25 25 -21 54 8 19 19 32 23 53 19 22 -4
34 1 56 24 25 26 27 32 15 51 -16 26 -38 27 -45 1z"/>
<path d="M4815 6560 c3 -5 13 -10 21 -10 8 0 14 5 14 10 0 6 -9 10 -21 10 -11
0 -17 -4 -14 -10z"/>
<path d="M3470 6516 c0 -33 14 -40 35 -16 20 22 13 40 -16 40 -14 0 -19 -7
-19 -24z"/>
<path d="M4290 6505 c-11 -13 -11 -19 3 -32 21 -21 49 -9 45 19 -4 28 -30 35
-48 13z"/>
<path d="M4865 6510 c-3 -5 1 -10 9 -10 9 0 16 5 16 10 0 6 -4 10 -9 10 -6 0
-13 -4 -16 -10z"/>
<path d="M4954 6509 c-3 -6 3 -24 15 -39 12 -17 23 -52 27 -85 4 -30 11 -58
16 -61 4 -3 25 5 46 17 34 21 35 21 20 3 -41 -47 -25 -135 20 -107 16 10 20 7
31 -23 7 -19 19 -34 27 -34 18 0 18 41 -1 66 -8 10 -15 28 -15 40 0 11 -6 26
-12 33 -11 11 -8 13 15 8 22 -3 30 0 36 16 7 20 8 19 14 -5 5 -19 15 -27 39
-31 18 -2 35 -3 37 -1 9 9 -30 74 -44 74 -8 0 -21 16 -29 35 -15 36 -28 40
-111 38 -11 0 -41 15 -66 33 -52 38 -55 39 -65 23z"/>
<path d="M5895 6509 c-10 -15 1 -23 20 -15 9 3 13 10 10 16 -8 13 -22 13 -30
-1z"/>
<path d="M4153 6470 c-13 -21 -23 -41 -23 -44 0 -13 31 -5 36 9 13 32 24 13
24 -40 0 -40 4 -57 15 -61 19 -8 48 15 41 33 -3 7 1 13 9 13 18 0 20 16 4 26
-6 3 -15 1 -19 -5 -4 -8 -9 0 -13 21 -8 50 -25 88 -39 88 -7 0 -23 -18 -35
-40z"/>
<path d="M5095 6500 c3 -5 10 -10 16 -10 5 0 9 5 9 10 0 6 -7 10 -16 10 -8 0
-12 -4 -9 -10z"/>
<path d="M3592 6469 c3 -36 27 -56 53 -45 16 6 16 8 3 24 -8 9 -18 25 -21 35
-4 9 -14 17 -22 17 -12 0 -15 -8 -13 -31z"/>
<path d="M4405 6470 c4 -6 11 -8 16 -5 14 9 11 15 -7 15 -8 0 -12 -5 -9 -10z"/>
<path d="M4870 6468 c0 -8 48 -119 53 -125 10 -9 37 18 37 37 0 10 -11 25 -24
34 -14 8 -27 25 -31 36 -3 11 -13 20 -21 20 -8 0 -14 -1 -14 -2z"/>
<path d="M6117 6363 c6 -87 14 -103 51 -103 24 0 25 1 20 65 -6 71 -28 115
-57 115 -18 0 -19 -6 -14 -77z"/>
<path d="M5575 6409 c-5 -14 0 -31 15 -51 14 -19 20 -40 18 -61 -2 -26 0 -31
15 -29 22 4 24 -44 1 -69 -12 -14 -13 -22 -4 -41 10 -21 9 -20 -14 4 -14 16
-29 35 -34 44 -8 15 -13 14 -57 -1 -27 -9 -54 -24 -61 -33 -13 -16 -13 -16
-14 0 0 20 32 43 73 53 40 10 33 25 -13 25 -45 0 -120 -33 -120 -53 1 -6 12
-37 25 -67 21 -49 22 -57 9 -77 -11 -18 -12 -27 -2 -48 8 -19 8 -31 0 -50 -27
-58 -10 -112 32 -101 22 5 26 3 26 -14 0 -30 25 -35 76 -15 76 29 70 58 -13
71 -64 9 -55 31 15 39 31 3 63 7 71 8 8 1 16 8 19 15 2 8 -9 12 -36 12 -33 0
-44 5 -66 34 -20 26 -31 33 -48 29 -17 -5 -20 -3 -15 11 4 10 7 23 7 29 0 8 4
7 12 -1 7 -7 34 -12 60 -12 39 0 54 -5 72 -25 31 -34 40 -31 33 8 -4 26 -1 36
14 45 18 12 19 8 19 -73 0 -68 3 -85 15 -85 22 0 38 36 25 60 -8 16 -5 27 20
61 42 58 39 109 -6 109 -29 0 -54 35 -54 75 0 40 -75 195 -94 195 -8 0 -18
-10 -21 -21z"/>
<path d="M6045 6420 c-3 -5 1 -10 9 -10 9 0 16 5 16 10 0 6 -4 10 -9 10 -6 0
-13 -4 -16 -10z"/>
<path d="M3670 6410 c0 -5 5 -10 11 -10 5 0 7 5 4 10 -3 6 -8 10 -11 10 -2 0
-4 -4 -4 -10z"/>
<path d="M5803 6401 c-14 -22 0 -41 29 -41 17 0 38 27 38 49 0 19 -54 12 -67
-8z"/>
<path d="M5330 6393 c-57 -9 -70 -14 -70 -29 0 -8 14 -20 30 -25 17 -6 30 -17
30 -25 0 -22 43 -84 58 -84 9 0 11 7 7 19 -4 14 0 23 15 31 30 16 25 40 -7 40
-28 1 -28 1 6 15 23 11 31 20 27 31 -3 9 -6 20 -6 25 0 9 -41 10 -90 2z"/>
<path d="M4135 6380 c-4 -6 -4 -29 0 -50 9 -54 35 -55 35 -1 0 40 -22 72 -35
51z"/>
<path d="M4965 6340 c3 -5 10 -10 16 -10 5 0 9 5 9 10 0 6 -7 10 -16 10 -8 0
-12 -4 -9 -10z"/>
<path d="M6048 6334 c-8 -7 3 -87 13 -98 5 -5 14 -4 23 3 13 11 13 18 -1 57
-14 42 -23 51 -35 38z"/>
<path d="M4064 6289 c-10 -17 13 -36 27 -22 12 12 4 33 -11 33 -5 0 -12 -5
-16 -11z"/>
<path d="M4934 6288 c-10 -16 45 -63 59 -49 8 8 4 18 -13 36 -26 28 -35 31
-46 13z"/>
<path d="M5219 6238 c0 -29 -4 -78 -8 -108 -6 -38 -5 -60 4 -73 7 -10 10 -36
7 -65 -3 -35 0 -51 11 -61 13 -10 18 -9 31 11 23 36 32 140 13 169 -8 13 -21
59 -28 102 -6 42 -16 77 -20 77 -5 0 -9 -24 -10 -52z"/>
<path d="M5437 6283 c-12 -11 -8 -23 8 -23 8 0 15 7 15 15 0 16 -12 20 -23 8z"/>
<path d="M3911 6245 c-21 -19 -44 -35 -51 -35 -21 0 -79 -48 -110 -91 -26 -37
-31 -79 -9 -79 6 0 -4 -26 -21 -57 -32 -62 -36 -78 -20 -88 13 -8 149 105 144
119 -3 7 34 51 80 99 60 61 90 85 101 80 28 -10 15 50 -12 62 -13 5 -23 13
-23 17 0 20 -44 5 -79 -27z"/>
<path d="M4180 6236 c0 -19 4 -47 10 -61 14 -37 33 -21 25 22 -4 22 -2 40 7
51 11 13 11 15 -4 9 -10 -3 -18 -2 -18 3 0 6 -4 10 -10 10 -5 0 -10 -15 -10
-34z"/>
<path d="M3788 6221 c-31 -17 -51 -36 -58 -55 -18 -52 4 -47 64 13 32 32 54
61 49 64 -4 2 -29 -7 -55 -22z"/>
<path d="M5731 6226 c-7 -8 -8 -17 -3 -20 6 -3 15 1 21 8 7 8 8 17 3 20 -6 3
-15 -1 -21 -8z"/>
<path d="M3200 6205 c0 -10 11 -15 35 -15 24 0 35 5 35 15 0 10 -11 15 -35 15
-24 0 -35 -5 -35 -15z"/>
<path d="M3314 6199 c-10 -17 13 -36 27 -22 12 12 4 33 -11 33 -5 0 -12 -5
-16 -11z"/>
<path d="M3508 6183 c-18 -19 -24 -33 -19 -43 5 -8 12 -33 16 -55 7 -41 21
-65 37 -65 5 0 8 11 6 24 -1 13 4 31 12 40 10 13 11 22 3 34 -5 10 -7 26 -2
37 23 59 -8 75 -53 28z"/>
<path d="M5046 6194 c-6 -16 37 -106 60 -125 9 -8 17 -4 29 15 18 28 14 56 -8
56 -7 0 -21 16 -30 35 -18 37 -41 46 -51 19z"/>
<path d="M5991 6191 c-10 -6 -10 -10 -1 -16 13 -8 24 -1 19 14 -3 6 -10 7 -18
2z"/>
<path d="M4002 6152 c-24 -2 -36 -11 -47 -32 -24 -46 -20 -53 23 -45 l37 7
-38 -26 c-21 -15 -56 -35 -77 -46 -42 -21 -72 -61 -51 -68 6 -2 2 -11 -11 -22
-31 -25 -14 -39 23 -18 29 17 29 17 18 -3 -17 -33 4 -46 38 -24 l28 18 -22
-25 c-25 -27 -30 -58 -10 -58 18 0 126 71 150 97 18 20 15 77 -5 89 -5 3 -4
12 3 20 14 17 3 119 -14 131 -7 5 -27 7 -45 5z"/>
<path d="M6276 6153 c-11 -11 -6 -23 9 -23 8 0 15 4 15 9 0 13 -16 22 -24 14z"/>
<path d="M4140 6082 c0 -21 -6 -35 -20 -42 -14 -8 -20 -21 -20 -45 0 -41 27
-62 55 -41 15 10 17 24 13 74 -5 67 -28 112 -28 54z"/>
<path d="M3398 6071 c-18 -16 -30 -33 -26 -37 10 -9 78 37 78 54 0 20 -17 14
-52 -17z"/>
<path d="M4190 6032 c0 -41 5 -63 15 -72 8 -7 15 -25 15 -41 0 -15 5 -31 10
-34 6 -3 10 -22 10 -42 0 -30 -2 -34 -15 -23 -8 7 -22 10 -30 6 -17 -6 -21
-46 -4 -46 5 0 15 -13 20 -30 15 -42 27 -37 31 13 l3 42 19 -58 c27 -80 42
-68 38 32 -2 55 1 80 8 76 19 -12 22 24 8 83 -9 37 -19 57 -28 57 -10 0 -17
15 -20 45 -5 44 -6 45 -42 48 l-38 3 0 -59z"/>
<path d="M3355 5978 c-53 -51 -106 -96 -117 -100 -22 -9 -20 -26 5 -42 12 -8
26 -3 62 23 25 18 51 31 57 29 6 -2 -3 -10 -20 -17 -35 -15 -41 -40 -16 -65
22 -23 33 -20 52 15 9 17 26 46 38 63 12 18 24 49 28 68 4 20 13 39 21 42 20
7 21 76 1 76 -7 0 -57 -42 -111 -92z"/>
<path d="M3570 6048 c0 -8 7 -38 16 -68 14 -48 17 -51 32 -37 15 15 14 20 -4
63 -19 46 -44 70 -44 42z"/>
<path d="M4290 6044 c0 -21 18 -54 30 -54 11 0 13 30 4 54 -8 21 -34 21 -34 0z"/>
<path d="M5173 6004 c-8 -22 15 -44 26 -25 10 16 4 41 -10 41 -5 0 -12 -7 -16
-16z"/>
<path d="M3310 5984 c0 -8 5 -12 10 -9 6 3 10 10 10 16 0 5 -4 9 -10 9 -5 0
-10 -7 -10 -16z"/>
<path d="M5832 5984 c-15 -11 -22 -26 -22 -50 0 -39 -3 -38 42 -19 30 12 35
18 31 39 -8 38 -25 48 -51 30z"/>
<path d="M6557 5976 c-3 -8 -3 -16 0 -19 9 -10 33 5 33 19 0 18 -26 18 -33 0z"/>
<path d="M3142 5964 c4 -20 58 -36 80 -23 19 12 0 26 -45 35 -34 6 -39 4 -35
-12z"/>
<path d="M6053 5964 c-8 -21 13 -42 28 -27 13 13 5 43 -11 43 -6 0 -13 -7 -17
-16z"/>
<path d="M3247 5943 c-12 -11 -8 -23 8 -23 8 0 15 7 15 15 0 16 -12 20 -23 8z"/>
<path d="M5267 5922 c-29 -31 -38 -70 -21 -86 8 -8 21 -13 28 -10 8 3 17 1 21
-5 3 -6 13 -11 21 -11 19 0 19 54 -1 70 -8 7 -15 23 -15 36 0 28 -11 31 -33 6z"/>
<path d="M5621 5916 c-10 -12 -7 -18 18 -30 16 -9 35 -16 41 -16 18 0 11 39
-9 50 -26 14 -36 13 -50 -4z"/>
<path d="M5955 5920 c-3 -5 -15 -10 -26 -10 -15 0 -20 -6 -17 -22 4 -30 38
-37 38 -9 0 14 5 19 15 15 9 -4 15 0 15 9 0 20 -16 31 -25 17z"/>
<path d="M4113 5895 c-3 -9 -3 -19 1 -22 7 -7 36 16 36 28 0 15 -30 10 -37 -6z"/>
<path d="M3150 5885 c-6 -8 -9 -18 -6 -23 3 -6 -1 -26 -9 -46 -9 -20 -13 -42
-9 -48 4 -6 13 4 21 23 8 19 23 44 35 56 22 23 19 53 -5 53 -8 0 -20 -7 -27
-15z"/>
<path d="M4182 5889 c2 -6 8 -10 13 -10 5 0 11 4 13 10 2 6 -4 11 -13 11 -9 0
-15 -5 -13 -11z"/>
<path d="M3652 5868 c-13 -13 -16 -38 -6 -38 8 0 33 32 34 43 0 11 -15 8 -28
-5z"/>
<path d="M3420 5855 c0 -8 5 -15 10 -15 6 0 10 7 10 15 0 8 -4 15 -10 15 -5 0
-10 -7 -10 -15z"/>
<path d="M5814 5844 c-25 -14 -44 -34 -48 -48 -4 -17 -11 -23 -24 -20 -25 7
-70 -42 -54 -58 9 -9 16 -7 31 6 11 10 21 13 25 7 4 -5 -2 -16 -12 -23 -27
-19 -92 -120 -85 -131 6 -10 37 21 58 57 7 12 16 15 28 10 16 -6 14 -12 -22
-48 -67 -69 -65 -120 3 -109 26 4 41 13 48 29 13 27 19 29 36 12 19 -19 46 57
44 124 -2 54 -1 56 27 66 29 10 30 11 25 69 -9 96 -11 97 -80 57z m-20 -237
c-5 -15 -63 -51 -70 -44 -2 2 13 16 33 30 45 31 44 30 37 14z"/>
<path d="M4948 5849 c-21 -12 -24 -59 -5 -59 21 0 50 37 44 55 -7 17 -15 18
-39 4z"/>
<path d="M4325 5808 c-8 -21 7 -70 23 -76 17 -5 15 50 -2 74 -13 17 -15 18
-21 2z"/>
<path d="M4863 5813 c-15 -5 -18 -43 -3 -43 12 0 32 38 23 43 -5 2 -14 2 -20
0z"/>
<path d="M5600 5805 c0 -8 5 -15 10 -15 6 0 10 7 10 15 0 8 -4 15 -10 15 -5 0
-10 -7 -10 -15z"/>
<path d="M3205 5780 c-3 -5 -1 -10 4 -10 6 0 11 5 11 10 0 6 -2 10 -4 10 -3 0
-8 -4 -11 -10z"/>
<path d="M5255 5770 c-26 -29 -13 -51 27 -44 50 9 58 12 58 27 0 12 -39 37
-59 37 -4 0 -16 -9 -26 -20z"/>
<path d="M4110 5770 c0 -5 5 -10 10 -10 6 0 10 5 10 10 0 6 -4 10 -10 10 -5 0
-10 -4 -10 -10z"/>
<path d="M5510 5730 c0 -5 5 -10 10 -10 6 0 10 5 10 10 0 6 -4 10 -10 10 -5 0
-10 -4 -10 -10z"/>
<path d="M4374 5717 c-8 -21 -2 -50 12 -54 17 -6 24 45 8 58 -11 9 -15 8 -20
-4z"/>
<path d="M4244 5696 c-3 -7 -4 -40 -2 -72 3 -51 6 -59 23 -59 11 0 30 -6 42
-13 18 -10 24 -9 38 5 14 13 16 28 12 65 -7 54 -23 91 -38 83 -5 -4 -9 -15 -9
-25 0 -32 -20 -33 -31 -1 -12 33 -26 40 -35 17z"/>
<path d="M5233 5703 c-27 -10 -11 -24 24 -21 44 4 59 28 16 27 -15 0 -34 -3
-40 -6z"/>
<path d="M4175 5691 c-7 -13 12 -51 25 -51 6 0 10 8 10 19 0 23 -25 46 -35 32z"/>
<path d="M5375 5661 c-7 -12 12 -24 25 -16 11 7 4 25 -10 25 -5 0 -11 -4 -15
-9z"/>
<path d="M4140 5650 c0 -6 4 -18 9 -28 5 -9 12 -26 16 -36 4 -14 9 -16 17 -8
8 8 6 20 -6 46 -16 34 -36 48 -36 26z"/>
<path d="M4200 5514 c0 -45 24 -42 28 4 2 24 -1 32 -12 32 -12 0 -16 -10 -16
-36z"/>
<path d="M5332 5508 c-15 -15 -16 -55 -1 -64 15 -9 26 5 34 44 7 34 -9 44 -33
20z"/>
<path d="M4246 5494 c-3 -9 -6 -31 -6 -50 0 -35 16 -44 38 -22 22 22 12 88
-13 88 -7 0 -16 -7 -19 -16z"/>
<path d="M4146 5484 c-3 -9 -6 -25 -6 -36 0 -17 3 -18 15 -8 16 13 21 60 6 60
-5 0 -12 -7 -15 -16z"/>
<path d="M5754 5465 c-7 -19 -14 -46 -14 -60 0 -14 -6 -34 -12 -45 -10 -16
-10 -22 5 -33 12 -8 17 -23 15 -42 -4 -43 24 -40 33 3 9 44 16 49 34 26 13
-16 16 -17 25 -4 12 19 13 55 0 78 -5 9 -18 38 -29 65 -11 26 -25 47 -31 47
-6 0 -18 -16 -26 -35z"/>
<path d="M5194 5469 c-7 -12 15 -31 31 -26 6 2 11 11 13 20 4 19 -32 24 -44 6z"/>
<path d="M5632 5448 c5 -15 28 -18 29 -3 0 6 -7 12 -17 13 -10 3 -15 -1 -12
-10z"/>
<path d="M5315 5420 c-8 -13 4 -32 16 -25 12 8 12 35 0 35 -6 0 -13 -4 -16
-10z"/>
<path d="M5401 5416 c-11 -13 -11 -20 -3 -28 8 -8 13 -7 18 5 10 27 0 41 -15
23z"/>
<path d="M4176 5354 c-9 -25 -7 -34 8 -34 8 0 16 -6 19 -12 4 -10 7 -10 18 0
11 10 10 12 -4 12 -11 0 -17 8 -17 25 0 28 -15 34 -24 9z"/>
<path d="M4370 5310 c0 -5 5 -10 10 -10 6 0 10 5 10 10 0 6 -4 10 -10 10 -5 0
-10 -4 -10 -10z"/>
<path d="M4163 5265 c-3 -9 -3 -19 1 -22 7 -7 36 16 36 28 0 15 -30 10 -37 -6z"/>
<path d="M4269 5184 c-10 -12 -10 -22 -1 -48 16 -44 15 -196 -3 -396 -16 -177
-19 -269 -9 -294 8 -21 30 -20 40 2 4 9 10 182 12 385 3 318 2 367 -11 367 -8
0 -20 -7 -28 -16z"/>
<path d="M5730 5098 c-29 -68 -29 -78 0 -78 15 0 40 56 40 90 0 43 -18 37 -40
-12z"/>
<path d="M4230 5100 c0 -5 5 -10 10 -10 6 0 10 5 10 10 0 6 -4 10 -10 10 -5 0
-10 -4 -10 -10z"/>
<path d="M5685 4302 c-15 -20 -20 -43 -20 -91 0 -75 14 -87 44 -38 15 25 21
51 21 96 0 69 -12 78 -45 33z"/>
<path d="M4267 4293 c-4 -3 -7 -15 -7 -25 0 -22 26 -24 34 -2 10 25 -10 45
-27 27z"/>
<path d="M4276 4211 c-12 -19 -17 -166 -9 -271 6 -83 11 -105 23 -105 10 0 16
13 18 40 2 22 8 43 14 46 21 13 36 173 22 227 -4 12 -13 22 -20 22 -8 0 -14 6
-14 14 0 19 -26 40 -34 27z"/>
<path d="M5702 4148 c-22 -29 -42 -79 -42 -108 0 -24 6 -33 26 -40 37 -14 54
3 54 55 0 53 -10 105 -20 105 -4 0 -12 -6 -18 -12z"/>
<path d="M5718 3903 c-42 -45 -74 -118 -56 -129 7 -4 14 -1 16 6 3 8 15 23 27
34 29 28 77 111 68 119 -11 12 -18 8 -55 -30z"/>
<path d="M4336 3894 c-3 -9 -6 -28 -6 -44 0 -16 -3 -36 -6 -44 -6 -15 -7 -15
-19 0 -7 11 -17 14 -25 9 -10 -6 -11 -33 -6 -116 7 -101 25 -169 46 -169 15 0
19 29 4 40 -10 9 -14 32 -13 79 1 36 4 54 6 39 5 -33 14 -35 39 -7 15 16 19
36 19 88 -1 109 -21 173 -39 125z"/>
<path d="M4324 3626 c-8 -22 3 -49 19 -43 6 2 12 14 12 27 0 27 -22 39 -31 16z"/>
<path d="M5665 3529 c-10 -15 3 -25 16 -12 7 7 7 13 1 17 -6 3 -14 1 -17 -5z"/>
<path d="M4310 3460 c0 -5 5 -10 10 -10 6 0 10 5 10 10 0 6 -4 10 -10 10 -5 0
-10 -4 -10 -10z"/>
<path d="M4308 3404 c-6 -6 0 -133 8 -171 7 -35 22 -27 34 18 9 31 8 44 -1 55
-7 9 -12 35 -10 60 1 32 -2 44 -12 44 -7 0 -16 -3 -19 -6z"/>
<path d="M4352 3203 c-16 -30 -34 -122 -28 -138 8 -21 72 -20 80 1 9 25 7 32
-15 53 -19 18 -20 23 -9 50 18 43 -8 74 -28 34z"/>
<path d="M4345 3021 c-8 -15 3 -31 21 -31 9 0 14 7 12 17 -4 20 -24 28 -33 14z"/>
<path d="M5591 2934 c-31 -39 -26 -99 6 -73 10 9 13 5 13 -20 0 -21 5 -31 15
-31 8 0 15 3 15 8 1 4 5 27 9 50 8 40 7 43 -10 39 -15 -4 -17 0 -12 24 7 37
-9 38 -36 3z"/>
<path d="M4307 2924 c-3 -3 -1 -17 4 -31 5 -14 6 -30 2 -36 -9 -14 -4 -129 5
-139 16 -17 34 13 44 73 8 53 7 71 -5 102 -15 34 -34 46 -50 31z"/>
<path d="M4386 2923 c-12 -13 -6 -53 9 -53 9 0 15 9 15 24 0 26 -12 40 -24 29z"/>
</g>
</svg>
